<?xml version="1.0" encoding="utf-8" standalone="no"?>
<!DOCTYPE svg PUBLIC "-//W3C//DTD SVG 1.1//EN"
  "http://www.w3.org/Graphics/SVG/1.1/DTD/svg11.dtd">
<!-- Created with matplotlib (https://matplotlib.org/) -->
<svg height="720pt" version="1.1" viewBox="0 0 720 720" width="720pt" xmlns="http://www.w3.org/2000/svg" xmlns:xlink="http://www.w3.org/1999/xlink">
 <defs>
  <style type="text/css">
*{stroke-linecap:butt;stroke-linejoin:round;}
  </style>
 </defs>
 <g id="figure_1">
  <g id="patch_1">
   <path d="M 0 720 
L 720 720 
L 720 0 
L 0 0 
z
" style="fill:#ffffff;"/>
  </g>
  <g id="axes_1">
   <g id="patch_2">
    <path d="M 61.94 676.56 
L 659.673636 676.56 
L 659.673636 19.44 
L 61.94 19.44 
z
" style="fill:#f0f4f6;"/>
   </g>
   <g id="matplotlib.axis_1">
    <g id="xtick_1">
     <g id="line2d_1">
      <path clip-path="url(#pa613142756)" d="M 89.109711 676.56 
L 89.109711 19.44 
" style="fill:none;stroke:#bcbebf;stroke-linecap:round;stroke-width:0.8;"/>
     </g>
     <g id="text_1">
      <!-- Age -->
      <defs>
       <path d="M 44.4375 29.390625 
L 33.546875 61.078125 
L 21.96875 29.390625 
z
M 28.46875 71.734375 
L 39.453125 71.734375 
L 65.484375 0 
L 54.828125 0 
L 47.5625 21.484375 
L 19.1875 21.484375 
L 11.421875 0 
L 1.46875 0 
z
" id="Helvetica-65"/>
       <path d="M 24.90625 53.21875 
Q 31.0625 53.21875 35.640625 50.203125 
Q 38.140625 48.484375 40.71875 45.21875 
L 40.71875 51.8125 
L 48.828125 51.8125 
L 48.828125 4.25 
Q 48.828125 -5.71875 45.90625 -11.46875 
Q 40.4375 -22.125 25.25 -22.125 
Q 16.796875 -22.125 11.03125 -18.328125 
Q 5.28125 -14.546875 4.59375 -6.5 
L 13.53125 -6.5 
Q 14.15625 -10.015625 16.0625 -11.921875 
Q 19.046875 -14.84375 25.4375 -14.84375 
Q 35.546875 -14.84375 38.671875 -7.71875 
Q 40.53125 -3.515625 40.375 7.28125 
Q 37.75 3.265625 34.03125 1.3125 
Q 30.328125 -0.640625 24.21875 -0.640625 
Q 15.71875 -0.640625 9.34375 5.390625 
Q 2.984375 11.421875 2.984375 25.34375 
Q 2.984375 38.484375 9.40625 45.84375 
Q 15.828125 53.21875 24.90625 53.21875 
z
M 40.71875 26.375 
Q 40.71875 36.078125 36.71875 40.765625 
Q 32.71875 45.453125 26.515625 45.453125 
Q 17.234375 45.453125 13.8125 36.765625 
Q 12.015625 32.125 12.015625 24.609375 
Q 12.015625 15.765625 15.59375 11.15625 
Q 19.1875 6.546875 25.25 6.546875 
Q 34.71875 6.546875 38.578125 15.09375 
Q 40.71875 19.921875 40.71875 26.375 
z
M 25.921875 53.5625 
z
" id="Helvetica-103"/>
       <path d="M 28.21875 53.46875 
Q 33.796875 53.46875 39.015625 50.859375 
Q 44.234375 48.25 46.96875 44.09375 
Q 49.609375 40.140625 50.484375 34.859375 
Q 51.265625 31.25 51.265625 23.34375 
L 12.9375 23.34375 
Q 13.1875 15.375 16.703125 10.5625 
Q 20.21875 5.765625 27.59375 5.765625 
Q 34.46875 5.765625 38.578125 10.296875 
Q 40.921875 12.9375 41.890625 16.40625 
L 50.53125 16.40625 
Q 50.203125 13.53125 48.265625 9.984375 
Q 46.34375 6.453125 43.953125 4.203125 
Q 39.9375 0.296875 34.03125 -1.078125 
Q 30.859375 -1.859375 26.859375 -1.859375 
Q 17.09375 -1.859375 10.296875 5.25 
Q 3.515625 12.359375 3.515625 25.140625 
Q 3.515625 37.75 10.34375 45.609375 
Q 17.1875 53.46875 28.21875 53.46875 
z
M 42.234375 30.328125 
Q 41.703125 36.03125 39.75 39.453125 
Q 36.140625 45.796875 27.6875 45.796875 
Q 21.625 45.796875 17.515625 41.421875 
Q 13.421875 37.0625 13.1875 30.328125 
z
M 27.390625 53.5625 
z
" id="Helvetica-101"/>
      </defs>
      <g style="fill:#1e1e1e;" transform="translate(73.096742 696.472188)scale(0.18 -0.18)">
       <use xlink:href="#Helvetica-65"/>
       <use x="66.699219" xlink:href="#Helvetica-103"/>
       <use x="122.314453" xlink:href="#Helvetica-101"/>
      </g>
     </g>
    </g>
    <g id="xtick_2">
     <g id="line2d_2">
      <path clip-path="url(#pa613142756)" d="M 224.958264 676.56 
L 224.958264 19.44 
" style="fill:none;stroke:#bcbebf;stroke-linecap:round;stroke-width:0.8;"/>
     </g>
     <g id="text_2">
      <!-- IncomeNeed -->
      <defs>
       <path d="M 9.8125 71.734375 
L 19.625 71.734375 
L 19.625 0 
L 9.8125 0 
z
" id="Helvetica-73"/>
       <path d="M 6.453125 52.296875 
L 14.796875 52.296875 
L 14.796875 44.875 
Q 18.5 49.46875 22.65625 51.46875 
Q 26.8125 53.46875 31.890625 53.46875 
Q 43.015625 53.46875 46.921875 45.703125 
Q 49.078125 41.453125 49.078125 33.546875 
L 49.078125 0 
L 40.140625 0 
L 40.140625 32.953125 
Q 40.140625 37.75 38.71875 40.671875 
Q 36.375 45.5625 30.21875 45.5625 
Q 27.09375 45.5625 25.09375 44.921875 
Q 21.484375 43.84375 18.75 40.625 
Q 16.546875 38.03125 15.890625 35.265625 
Q 15.234375 32.515625 15.234375 27.390625 
L 15.234375 0 
L 6.453125 0 
z
M 27.09375 53.5625 
z
" id="Helvetica-110"/>
       <path d="M 26.609375 53.8125 
Q 35.453125 53.8125 40.984375 49.515625 
Q 46.53125 45.21875 47.65625 34.71875 
L 39.109375 34.71875 
Q 38.328125 39.546875 35.546875 42.75 
Q 32.765625 45.953125 26.609375 45.953125 
Q 18.21875 45.953125 14.59375 37.75 
Q 12.25 32.421875 12.25 24.609375 
Q 12.25 16.75 15.5625 11.375 
Q 18.890625 6 26.03125 6 
Q 31.5 6 34.6875 9.34375 
Q 37.890625 12.703125 39.109375 18.5 
L 47.65625 18.5 
Q 46.1875 8.109375 40.328125 3.296875 
Q 34.46875 -1.515625 25.34375 -1.515625 
Q 15.09375 -1.515625 8.984375 5.984375 
Q 2.875 13.484375 2.875 24.703125 
Q 2.875 38.484375 9.5625 46.140625 
Q 16.265625 53.8125 26.609375 53.8125 
z
M 25.25 53.5625 
z
" id="Helvetica-99"/>
       <path d="M 27.203125 5.671875 
Q 35.9375 5.671875 39.1875 12.28125 
Q 42.4375 18.890625 42.4375 27 
Q 42.4375 34.328125 40.09375 38.921875 
Q 36.375 46.140625 27.296875 46.140625 
Q 19.234375 46.140625 15.578125 39.984375 
Q 11.921875 33.84375 11.921875 25.140625 
Q 11.921875 16.796875 15.578125 11.234375 
Q 19.234375 5.671875 27.203125 5.671875 
z
M 27.546875 53.8125 
Q 37.640625 53.8125 44.625 47.0625 
Q 51.609375 40.328125 51.609375 27.25 
Q 51.609375 14.59375 45.453125 6.34375 
Q 39.3125 -1.90625 26.375 -1.90625 
Q 15.578125 -1.90625 9.21875 5.390625 
Q 2.875 12.703125 2.875 25 
Q 2.875 38.1875 9.5625 46 
Q 16.265625 53.8125 27.546875 53.8125 
z
M 27.25 53.5625 
z
" id="Helvetica-111"/>
       <path d="M 6.453125 52.296875 
L 15.140625 52.296875 
L 15.140625 44.875 
Q 18.265625 48.734375 20.796875 50.484375 
Q 25.140625 53.46875 30.671875 53.46875 
Q 36.921875 53.46875 40.71875 50.390625 
Q 42.875 48.640625 44.625 45.21875 
Q 47.5625 49.421875 51.515625 51.4375 
Q 55.46875 53.46875 60.40625 53.46875 
Q 70.953125 53.46875 74.75 45.84375 
Q 76.8125 41.75 76.8125 34.8125 
L 76.8125 0 
L 67.671875 0 
L 67.671875 36.328125 
Q 67.671875 41.546875 65.0625 43.5 
Q 62.453125 45.453125 58.6875 45.453125 
Q 53.515625 45.453125 49.78125 41.984375 
Q 46.046875 38.53125 46.046875 30.421875 
L 46.046875 0 
L 37.109375 0 
L 37.109375 34.125 
Q 37.109375 39.453125 35.84375 41.890625 
Q 33.84375 45.5625 28.375 45.5625 
Q 23.390625 45.5625 19.3125 41.703125 
Q 15.234375 37.84375 15.234375 27.734375 
L 15.234375 0 
L 6.453125 0 
z
" id="Helvetica-109"/>
       <path d="M 7.625 71.734375 
L 19.09375 71.734375 
L 55.328125 13.625 
L 55.328125 71.734375 
L 64.546875 71.734375 
L 64.546875 0 
L 53.65625 0 
L 16.890625 58.0625 
L 16.890625 0 
L 7.625 0 
z
M 35.453125 71.734375 
z
" id="Helvetica-78"/>
       <path d="M 12.015625 25.53125 
Q 12.015625 17.140625 15.578125 11.46875 
Q 19.140625 5.8125 27 5.8125 
Q 33.109375 5.8125 37.03125 11.0625 
Q 40.96875 16.3125 40.96875 26.125 
Q 40.96875 36.03125 36.90625 40.796875 
Q 32.859375 45.5625 26.90625 45.5625 
Q 20.265625 45.5625 16.140625 40.484375 
Q 12.015625 35.40625 12.015625 25.53125 
z
M 25.25 53.21875 
Q 31.25 53.21875 35.296875 50.6875 
Q 37.640625 49.21875 40.625 45.5625 
L 40.625 71.96875 
L 49.078125 71.96875 
L 49.078125 0 
L 41.15625 0 
L 41.15625 7.28125 
Q 38.09375 2.4375 33.890625 0.28125 
Q 29.6875 -1.859375 24.265625 -1.859375 
Q 15.53125 -1.859375 9.125 5.484375 
Q 2.734375 12.84375 2.734375 25.046875 
Q 2.734375 36.46875 8.5625 44.84375 
Q 14.40625 53.21875 25.25 53.21875 
z
" id="Helvetica-100"/>
      </defs>
      <g style="fill:#1e1e1e;" transform="translate(173.932483 696.472188)scale(0.18 -0.18)">
       <use xlink:href="#Helvetica-73"/>
       <use x="27.783203" xlink:href="#Helvetica-110"/>
       <use x="83.398438" xlink:href="#Helvetica-99"/>
       <use x="133.398438" xlink:href="#Helvetica-111"/>
       <use x="189.013672" xlink:href="#Helvetica-109"/>
       <use x="272.314453" xlink:href="#Helvetica-101"/>
       <use x="327.929688" xlink:href="#Helvetica-78"/>
       <use x="400.146484" xlink:href="#Helvetica-101"/>
       <use x="455.761719" xlink:href="#Helvetica-101"/>
       <use x="511.376953" xlink:href="#Helvetica-100"/>
      </g>
     </g>
    </g>
    <g id="xtick_3">
     <g id="line2d_3">
      <path clip-path="url(#pa613142756)" d="M 360.806818 676.56 
L 360.806818 19.44 
" style="fill:none;stroke:#bcbebf;stroke-linecap:round;stroke-width:0.8;"/>
     </g>
     <g id="text_3">
      <!-- RiskPropension -->
      <defs>
       <path d="M 40.96875 38.875 
Q 47.796875 38.875 51.78125 41.609375 
Q 55.765625 44.34375 55.765625 51.46875 
Q 55.765625 59.125 50.203125 61.921875 
Q 47.21875 63.375 42.234375 63.375 
L 18.5 63.375 
L 18.5 38.875 
z
M 8.796875 71.734375 
L 42 71.734375 
Q 50.203125 71.734375 55.515625 69.34375 
Q 65.625 64.75 65.625 52.390625 
Q 65.625 45.953125 62.953125 41.84375 
Q 60.296875 37.75 55.515625 35.25 
Q 59.71875 33.546875 61.84375 30.765625 
Q 63.96875 27.984375 64.203125 21.734375 
L 64.546875 12.109375 
Q 64.703125 8.015625 65.234375 6 
Q 66.109375 2.59375 68.359375 1.609375 
L 68.359375 0 
L 56.453125 0 
Q 55.953125 0.921875 55.65625 2.390625 
Q 55.375 3.859375 55.171875 8.0625 
L 54.59375 20.015625 
Q 54.25 27.046875 49.359375 29.4375 
Q 46.578125 30.765625 40.625 30.765625 
L 18.5 30.765625 
L 18.5 0 
L 8.796875 0 
z
" id="Helvetica-82"/>
       <path d="M 6.453125 52.046875 
L 15.375 52.046875 
L 15.375 0 
L 6.453125 0 
z
M 6.453125 71.734375 
L 15.375 71.734375 
L 15.375 61.765625 
L 6.453125 61.765625 
z
" id="Helvetica-105"/>
       <path d="M 11.671875 16.40625 
Q 12.0625 12.015625 13.875 9.671875 
Q 17.1875 5.421875 25.390625 5.421875 
Q 30.28125 5.421875 33.984375 7.546875 
Q 37.703125 9.671875 37.703125 14.109375 
Q 37.703125 17.484375 34.71875 19.234375 
Q 32.8125 20.3125 27.203125 21.734375 
L 20.21875 23.484375 
Q 13.53125 25.140625 10.359375 27.203125 
Q 4.6875 30.765625 4.6875 37.0625 
Q 4.6875 44.484375 10.03125 49.0625 
Q 15.375 53.65625 24.421875 53.65625 
Q 36.234375 53.65625 41.453125 46.734375 
Q 44.734375 42.328125 44.625 37.25 
L 36.328125 37.25 
Q 36.078125 40.234375 34.234375 42.671875 
Q 31.203125 46.140625 23.734375 46.140625 
Q 18.75 46.140625 16.1875 44.234375 
Q 13.625 42.328125 13.625 39.203125 
Q 13.625 35.796875 17 33.734375 
Q 18.953125 32.515625 22.75 31.59375 
L 28.5625 30.171875 
Q 38.03125 27.875 41.265625 25.734375 
Q 46.390625 22.359375 46.390625 15.140625 
Q 46.390625 8.15625 41.09375 3.078125 
Q 35.796875 -2 24.953125 -2 
Q 13.28125 -2 8.421875 3.296875 
Q 3.5625 8.59375 3.21875 16.40625 
z
M 24.65625 53.5625 
z
" id="Helvetica-115"/>
       <path d="M 6.25 71.734375 
L 14.703125 71.734375 
L 14.703125 30.078125 
L 37.25 52.296875 
L 48.484375 52.296875 
L 28.46875 32.71875 
L 49.609375 0 
L 38.375 0 
L 22.078125 26.375 
L 14.703125 19.625 
L 14.703125 0 
L 6.25 0 
z
" id="Helvetica-107"/>
       <path d="M 8.546875 71.734375 
L 40.828125 71.734375 
Q 50.390625 71.734375 56.25 66.328125 
Q 62.109375 60.9375 62.109375 51.171875 
Q 62.109375 42.78125 56.875 36.546875 
Q 51.65625 30.328125 40.828125 30.328125 
L 18.265625 30.328125 
L 18.265625 0 
L 8.546875 0 
z
M 52.296875 51.125 
Q 52.296875 59.03125 46.4375 61.859375 
Q 43.21875 63.375 37.59375 63.375 
L 18.265625 63.375 
L 18.265625 38.53125 
L 37.59375 38.53125 
Q 44.140625 38.53125 48.21875 41.3125 
Q 52.296875 44.09375 52.296875 51.125 
z
" id="Helvetica-80"/>
       <path d="M 6.6875 52.296875 
L 15.046875 52.296875 
L 15.046875 43.265625 
Q 16.0625 45.90625 20.0625 49.6875 
Q 24.078125 53.46875 29.296875 53.46875 
Q 29.546875 53.46875 30.125 53.421875 
Q 30.71875 53.375 32.125 53.21875 
L 32.125 43.953125 
Q 31.34375 44.09375 30.6875 44.140625 
Q 30.03125 44.1875 29.25 44.1875 
Q 22.609375 44.1875 19.046875 39.90625 
Q 15.484375 35.640625 15.484375 30.078125 
L 15.484375 0 
L 6.6875 0 
z
" id="Helvetica-114"/>
       <path d="M 28.515625 5.90625 
Q 34.671875 5.90625 38.75 11.0625 
Q 42.828125 16.21875 42.828125 26.46875 
Q 42.828125 32.71875 41.015625 37.203125 
Q 37.59375 45.84375 28.515625 45.84375 
Q 19.390625 45.84375 16.015625 36.71875 
Q 14.203125 31.84375 14.203125 24.3125 
Q 14.203125 18.265625 16.015625 14.015625 
Q 19.4375 5.90625 28.515625 5.90625 
z
M 5.765625 52.046875 
L 14.3125 52.046875 
L 14.3125 45.125 
Q 16.9375 48.6875 20.0625 50.640625 
Q 24.515625 53.5625 30.515625 53.5625 
Q 39.40625 53.5625 45.609375 46.75 
Q 51.8125 39.9375 51.8125 27.296875 
Q 51.8125 10.203125 42.875 2.875 
Q 37.203125 -1.765625 29.6875 -1.765625 
Q 23.78125 -1.765625 19.78125 0.828125 
Q 17.4375 2.296875 14.546875 5.859375 
L 14.546875 -20.84375 
L 5.765625 -20.84375 
z
" id="Helvetica-112"/>
      </defs>
      <g style="fill:#1e1e1e;" transform="translate(297.778693 696.472188)scale(0.18 -0.18)">
       <use xlink:href="#Helvetica-82"/>
       <use x="72.216797" xlink:href="#Helvetica-105"/>
       <use x="94.433594" xlink:href="#Helvetica-115"/>
       <use x="144.433594" xlink:href="#Helvetica-107"/>
       <use x="194.433594" xlink:href="#Helvetica-80"/>
       <use x="261.132812" xlink:href="#Helvetica-114"/>
       <use x="294.433594" xlink:href="#Helvetica-111"/>
       <use x="350.048828" xlink:href="#Helvetica-112"/>
       <use x="405.664062" xlink:href="#Helvetica-101"/>
       <use x="461.279297" xlink:href="#Helvetica-110"/>
       <use x="516.894531" xlink:href="#Helvetica-115"/>
       <use x="566.894531" xlink:href="#Helvetica-105"/>
       <use x="589.111328" xlink:href="#Helvetica-111"/>
       <use x="644.726562" xlink:href="#Helvetica-110"/>
      </g>
     </g>
    </g>
    <g id="xtick_4">
     <g id="line2d_4">
      <path clip-path="url(#pa613142756)" d="M 496.655372 676.56 
L 496.655372 19.44 
" style="fill:none;stroke:#bcbebf;stroke-linecap:round;stroke-width:0.8;"/>
     </g>
     <g id="text_4">
      <!-- ProtectionNeed -->
      <defs>
       <path d="M 8.203125 66.890625 
L 17.09375 66.890625 
L 17.09375 52.296875 
L 25.4375 52.296875 
L 25.4375 45.125 
L 17.09375 45.125 
L 17.09375 10.984375 
Q 17.09375 8.25 18.953125 7.328125 
Q 19.96875 6.78125 22.359375 6.78125 
Q 23 6.78125 23.734375 6.8125 
Q 24.46875 6.84375 25.4375 6.9375 
L 25.4375 0 
Q 23.921875 -0.4375 22.28125 -0.625 
Q 20.65625 -0.828125 18.75 -0.828125 
Q 12.59375 -0.828125 10.390625 2.3125 
Q 8.203125 5.46875 8.203125 10.5 
L 8.203125 45.125 
L 1.125 45.125 
L 1.125 52.296875 
L 8.203125 52.296875 
z
" id="Helvetica-116"/>
      </defs>
      <g style="fill:#1e1e1e;" transform="translate(434.621466 696.472188)scale(0.18 -0.18)">
       <use xlink:href="#Helvetica-80"/>
       <use x="66.699219" xlink:href="#Helvetica-114"/>
       <use x="100" xlink:href="#Helvetica-111"/>
       <use x="155.615234" xlink:href="#Helvetica-116"/>
       <use x="183.398438" xlink:href="#Helvetica-101"/>
       <use x="239.013672" xlink:href="#Helvetica-99"/>
       <use x="289.013672" xlink:href="#Helvetica-116"/>
       <use x="316.796875" xlink:href="#Helvetica-105"/>
       <use x="339.013672" xlink:href="#Helvetica-111"/>
       <use x="394.628906" xlink:href="#Helvetica-110"/>
       <use x="450.244141" xlink:href="#Helvetica-78"/>
       <use x="522.460938" xlink:href="#Helvetica-101"/>
       <use x="578.076172" xlink:href="#Helvetica-101"/>
       <use x="633.691406" xlink:href="#Helvetica-100"/>
      </g>
     </g>
    </g>
    <g id="xtick_5">
     <g id="line2d_5">
      <path clip-path="url(#pa613142756)" d="M 632.503926 676.56 
L 632.503926 19.44 
" style="fill:none;stroke:#bcbebf;stroke-linecap:round;stroke-width:0.8;"/>
     </g>
     <g id="text_5">
      <!-- InheritanceIndex -->
      <defs>
       <path d="M 6.453125 71.96875 
L 15.234375 71.96875 
L 15.234375 45.21875 
Q 18.359375 49.171875 20.84375 50.78125 
Q 25.09375 53.5625 31.453125 53.5625 
Q 42.828125 53.5625 46.875 45.609375 
Q 49.078125 41.265625 49.078125 33.546875 
L 49.078125 0 
L 40.046875 0 
L 40.046875 32.953125 
Q 40.046875 38.71875 38.578125 41.40625 
Q 36.1875 45.703125 29.59375 45.703125 
Q 24.125 45.703125 19.671875 41.9375 
Q 15.234375 38.1875 15.234375 27.734375 
L 15.234375 0 
L 6.453125 0 
z
" id="Helvetica-104"/>
       <path d="M 13.1875 13.921875 
Q 13.1875 10.109375 15.96875 7.90625 
Q 18.75 5.71875 22.5625 5.71875 
Q 27.203125 5.71875 31.546875 7.859375 
Q 38.875 11.421875 38.875 19.53125 
L 38.875 26.609375 
Q 37.25 25.59375 34.703125 24.90625 
Q 32.171875 24.21875 29.734375 23.921875 
L 24.421875 23.25 
Q 19.625 22.609375 17.234375 21.234375 
Q 13.1875 18.953125 13.1875 13.921875 
z
M 34.46875 31.6875 
Q 37.5 32.078125 38.53125 34.234375 
Q 39.109375 35.40625 39.109375 37.59375 
Q 39.109375 42.09375 35.90625 44.109375 
Q 32.71875 46.140625 26.765625 46.140625 
Q 19.875 46.140625 17 42.4375 
Q 15.375 40.375 14.890625 36.328125 
L 6.6875 36.328125 
Q 6.9375 46 12.96875 49.78125 
Q 19 53.5625 26.953125 53.5625 
Q 36.1875 53.5625 41.9375 50.046875 
Q 47.65625 46.53125 47.65625 39.109375 
L 47.65625 8.984375 
Q 47.65625 7.625 48.21875 6.78125 
Q 48.78125 5.953125 50.59375 5.953125 
Q 51.171875 5.953125 51.90625 6.03125 
Q 52.640625 6.109375 53.46875 6.25 
L 53.46875 -0.25 
Q 51.421875 -0.828125 50.34375 -0.96875 
Q 49.265625 -1.125 47.40625 -1.125 
Q 42.875 -1.125 40.828125 2.09375 
Q 39.75 3.8125 39.3125 6.9375 
Q 36.625 3.421875 31.59375 0.828125 
Q 26.5625 -1.765625 20.515625 -1.765625 
Q 13.234375 -1.765625 8.609375 2.65625 
Q 4 7.078125 4 13.71875 
Q 4 21 8.546875 25 
Q 13.09375 29 20.453125 29.9375 
z
M 27.203125 53.5625 
z
" id="Helvetica-97"/>
       <path d="M 1.46875 52.296875 
L 12.84375 52.296875 
L 24.859375 33.890625 
L 37.015625 52.296875 
L 47.703125 52.046875 
L 30.078125 26.8125 
L 48.484375 0 
L 37.25 0 
L 24.265625 19.625 
L 11.671875 0 
L 0.53125 0 
L 18.953125 26.8125 
z
" id="Helvetica-120"/>
      </defs>
      <g style="fill:#1e1e1e;" transform="translate(565.962988 696.472188)scale(0.18 -0.18)">
       <use xlink:href="#Helvetica-73"/>
       <use x="27.783203" xlink:href="#Helvetica-110"/>
       <use x="83.398438" xlink:href="#Helvetica-104"/>
       <use x="139.013672" xlink:href="#Helvetica-101"/>
       <use x="194.628906" xlink:href="#Helvetica-114"/>
       <use x="227.929688" xlink:href="#Helvetica-105"/>
       <use x="250.146484" xlink:href="#Helvetica-116"/>
       <use x="277.929688" xlink:href="#Helvetica-97"/>
       <use x="333.544922" xlink:href="#Helvetica-110"/>
       <use x="389.160156" xlink:href="#Helvetica-99"/>
       <use x="439.160156" xlink:href="#Helvetica-101"/>
       <use x="494.775391" xlink:href="#Helvetica-73"/>
       <use x="522.558594" xlink:href="#Helvetica-110"/>
       <use x="578.173828" xlink:href="#Helvetica-100"/>
       <use x="633.789062" xlink:href="#Helvetica-101"/>
       <use x="689.404297" xlink:href="#Helvetica-120"/>
      </g>
     </g>
    </g>
   </g>
   <g id="matplotlib.axis_2">
    <g id="ytick_1">
     <g id="line2d_6">
      <path clip-path="url(#pa613142756)" d="M 61.94 599.011717 
L 659.673636 599.011717 
" style="fill:none;stroke:#bcbebf;stroke-linecap:round;stroke-width:0.8;"/>
     </g>
     <g id="text_6">
      <!-- −1.5 -->
      <defs>
       <path d="M 55.421875 29.59375 
L 55.421875 21.390625 
L 4.5 21.390625 
L 4.5 29.59375 
z
" id="Helvetica-8722"/>
       <path d="M 9.578125 49.515625 
L 9.578125 56.25 
Q 19.09375 57.171875 22.84375 59.34375 
Q 26.609375 61.53125 28.46875 69.625 
L 35.40625 69.625 
L 35.40625 0 
L 26.03125 0 
L 26.03125 49.515625 
z
" id="Helvetica-49"/>
       <path d="M 8.546875 10.640625 
L 18.75 10.640625 
L 18.75 0 
L 8.546875 0 
z
" id="Helvetica-46"/>
       <path d="M 12.359375 17.828125 
Q 13.234375 10.296875 19.34375 7.421875 
Q 22.46875 5.953125 26.5625 5.953125 
Q 34.375 5.953125 38.125 10.9375 
Q 41.890625 15.921875 41.890625 21.96875 
Q 41.890625 29.296875 37.421875 33.296875 
Q 32.953125 37.3125 26.703125 37.3125 
Q 22.171875 37.3125 18.921875 35.546875 
Q 15.671875 33.796875 13.375 30.671875 
L 5.765625 31.109375 
L 11.078125 68.75 
L 47.40625 68.75 
L 47.40625 60.25 
L 17.671875 60.25 
L 14.703125 40.828125 
Q 17.140625 42.671875 19.34375 43.609375 
Q 23.25 45.21875 28.375 45.21875 
Q 37.984375 45.21875 44.671875 39.015625 
Q 51.375 32.8125 51.375 23.296875 
Q 51.375 13.375 45.234375 5.796875 
Q 39.109375 -1.765625 25.6875 -1.765625 
Q 17.140625 -1.765625 10.5625 3.046875 
Q 4 7.859375 3.21875 17.828125 
z
" id="Helvetica-53"/>
      </defs>
      <g style="fill:#1e1e1e;" transform="translate(19.406875 605.467811)scale(0.18 -0.18)">
       <use xlink:href="#Helvetica-8722"/>
       <use x="58.398438" xlink:href="#Helvetica-49"/>
       <use x="114.013672" xlink:href="#Helvetica-46"/>
       <use x="141.796875" xlink:href="#Helvetica-53"/>
      </g>
     </g>
    </g>
    <g id="ytick_2">
     <g id="line2d_7">
      <path clip-path="url(#pa613142756)" d="M 61.94 520.990171 
L 659.673636 520.990171 
" style="fill:none;stroke:#bcbebf;stroke-linecap:round;stroke-width:0.8;"/>
     </g>
     <g id="text_7">
      <!-- −1.0 -->
      <defs>
       <path d="M 27.046875 69.921875 
Q 40.625 69.921875 46.6875 58.734375 
Q 51.375 50.09375 51.375 35.0625 
Q 51.375 20.796875 47.125 11.46875 
Q 40.96875 -1.90625 27 -1.90625 
Q 14.40625 -1.90625 8.25 9.03125 
Q 3.125 18.171875 3.125 33.546875 
Q 3.125 45.453125 6.203125 54 
Q 11.96875 69.921875 27.046875 69.921875 
z
M 26.953125 6.109375 
Q 33.796875 6.109375 37.84375 12.15625 
Q 41.890625 18.21875 41.890625 34.71875 
Q 41.890625 46.625 38.953125 54.3125 
Q 36.03125 62.015625 27.59375 62.015625 
Q 19.828125 62.015625 16.234375 54.703125 
Q 12.640625 47.40625 12.640625 33.203125 
Q 12.640625 22.515625 14.9375 16.015625 
Q 18.453125 6.109375 26.953125 6.109375 
z
" id="Helvetica-48"/>
      </defs>
      <g style="fill:#1e1e1e;" transform="translate(19.406875 527.446264)scale(0.18 -0.18)">
       <use xlink:href="#Helvetica-8722"/>
       <use x="58.398438" xlink:href="#Helvetica-49"/>
       <use x="114.013672" xlink:href="#Helvetica-46"/>
       <use x="141.796875" xlink:href="#Helvetica-48"/>
      </g>
     </g>
    </g>
    <g id="ytick_3">
     <g id="line2d_8">
      <path clip-path="url(#pa613142756)" d="M 61.94 442.968624 
L 659.673636 442.968624 
" style="fill:none;stroke:#bcbebf;stroke-linecap:round;stroke-width:0.8;"/>
     </g>
     <g id="text_8">
      <!-- −0.5 -->
      <g style="fill:#1e1e1e;" transform="translate(19.406875 449.424718)scale(0.18 -0.18)">
       <use xlink:href="#Helvetica-8722"/>
       <use x="58.398438" xlink:href="#Helvetica-48"/>
       <use x="114.013672" xlink:href="#Helvetica-46"/>
       <use x="141.796875" xlink:href="#Helvetica-53"/>
      </g>
     </g>
    </g>
    <g id="ytick_4">
     <g id="line2d_9">
      <path clip-path="url(#pa613142756)" d="M 61.94 364.947078 
L 659.673636 364.947078 
" style="fill:none;stroke:#bcbebf;stroke-linecap:round;stroke-width:0.8;"/>
     </g>
     <g id="text_9">
      <!-- 0.0 -->
      <g style="fill:#1e1e1e;" transform="translate(29.92 371.403172)scale(0.18 -0.18)">
       <use xlink:href="#Helvetica-48"/>
       <use x="55.615234" xlink:href="#Helvetica-46"/>
       <use x="83.398438" xlink:href="#Helvetica-48"/>
      </g>
     </g>
    </g>
    <g id="ytick_5">
     <g id="line2d_10">
      <path clip-path="url(#pa613142756)" d="M 61.94 286.925532 
L 659.673636 286.925532 
" style="fill:none;stroke:#bcbebf;stroke-linecap:round;stroke-width:0.8;"/>
     </g>
     <g id="text_10">
      <!-- 0.5 -->
      <g style="fill:#1e1e1e;" transform="translate(29.92 293.381626)scale(0.18 -0.18)">
       <use xlink:href="#Helvetica-48"/>
       <use x="55.615234" xlink:href="#Helvetica-46"/>
       <use x="83.398438" xlink:href="#Helvetica-53"/>
      </g>
     </g>
    </g>
    <g id="ytick_6">
     <g id="line2d_11">
      <path clip-path="url(#pa613142756)" d="M 61.94 208.903986 
L 659.673636 208.903986 
" style="fill:none;stroke:#bcbebf;stroke-linecap:round;stroke-width:0.8;"/>
     </g>
     <g id="text_11">
      <!-- 1.0 -->
      <g style="fill:#1e1e1e;" transform="translate(29.92 215.360079)scale(0.18 -0.18)">
       <use xlink:href="#Helvetica-49"/>
       <use x="55.615234" xlink:href="#Helvetica-46"/>
       <use x="83.398438" xlink:href="#Helvetica-48"/>
      </g>
     </g>
    </g>
    <g id="ytick_7">
     <g id="line2d_12">
      <path clip-path="url(#pa613142756)" d="M 61.94 130.882439 
L 659.673636 130.882439 
" style="fill:none;stroke:#bcbebf;stroke-linecap:round;stroke-width:0.8;"/>
     </g>
     <g id="text_12">
      <!-- 1.5 -->
      <g style="fill:#1e1e1e;" transform="translate(29.92 137.338533)scale(0.18 -0.18)">
       <use xlink:href="#Helvetica-49"/>
       <use x="55.615234" xlink:href="#Helvetica-46"/>
       <use x="83.398438" xlink:href="#Helvetica-53"/>
      </g>
     </g>
    </g>
    <g id="ytick_8">
     <g id="line2d_13">
      <path clip-path="url(#pa613142756)" d="M 61.94 52.860893 
L 659.673636 52.860893 
" style="fill:none;stroke:#bcbebf;stroke-linecap:round;stroke-width:0.8;"/>
     </g>
     <g id="text_13">
      <!-- 2.0 -->
      <defs>
       <path d="M 3.125 0 
Q 3.609375 9.03125 6.859375 15.71875 
Q 10.109375 22.40625 19.53125 27.875 
L 28.90625 33.296875 
Q 35.203125 36.96875 37.75 39.546875 
Q 41.75 43.609375 41.75 48.828125 
Q 41.75 54.9375 38.078125 58.515625 
Q 34.421875 62.109375 28.328125 62.109375 
Q 19.28125 62.109375 15.828125 55.28125 
Q 13.96875 51.609375 13.765625 45.125 
L 4.828125 45.125 
Q 4.984375 54.25 8.203125 60.015625 
Q 13.921875 70.171875 28.375 70.171875 
Q 40.375 70.171875 45.921875 63.671875 
Q 51.46875 57.171875 51.46875 49.21875 
Q 51.46875 40.828125 45.5625 34.859375 
Q 42.140625 31.390625 33.296875 26.46875 
L 26.609375 22.75 
Q 21.828125 20.125 19.09375 17.71875 
Q 14.203125 13.484375 12.9375 8.296875 
L 51.125 8.296875 
L 51.125 0 
L 3.125 0 
z
" id="Helvetica-50"/>
      </defs>
      <g style="fill:#1e1e1e;" transform="translate(29.92 59.316987)scale(0.18 -0.18)">
       <use xlink:href="#Helvetica-50"/>
       <use x="55.615234" xlink:href="#Helvetica-46"/>
       <use x="83.398438" xlink:href="#Helvetica-48"/>
      </g>
     </g>
    </g>
   </g>
   <g id="LineCollection_1">
    <path clip-path="url(#pa613142756)" d="M 89.109711 330.848845 
L 89.109711 325.807131 
" style="fill:none;stroke:#e58530;stroke-opacity:0.6;stroke-width:50;"/>
    <path clip-path="url(#pa613142756)" d="M 224.958264 396.488142 
L 224.958264 393.89476 
" style="fill:none;stroke:#e58530;stroke-opacity:0.6;stroke-width:50;"/>
    <path clip-path="url(#pa613142756)" d="M 360.806818 423.133452 
L 360.806818 418.447968 
" style="fill:none;stroke:#e58530;stroke-opacity:0.6;stroke-width:50;"/>
    <path clip-path="url(#pa613142756)" d="M 496.655372 450.903736 
L 496.655372 448.356869 
" style="fill:none;stroke:#e58530;stroke-opacity:0.6;stroke-width:50;"/>
    <path clip-path="url(#pa613142756)" d="M 632.503926 347.860911 
L 632.503926 343.190309 
" style="fill:none;stroke:#e58530;stroke-opacity:0.6;stroke-width:50;"/>
   </g>
   <g id="LineCollection_2">
    <path clip-path="url(#pa613142756)" d="M 89.109711 267.473768 
L 89.109711 258.479893 
" style="fill:none;stroke:#65b9e4;stroke-opacity:0.6;stroke-width:50;"/>
    <path clip-path="url(#pa613142756)" d="M 224.958264 58.718213 
L 224.958264 49.309091 
" style="fill:none;stroke:#65b9e4;stroke-opacity:0.6;stroke-width:50;"/>
    <path clip-path="url(#pa613142756)" d="M 360.806818 442.301838 
L 360.806818 435.445895 
" style="fill:none;stroke:#65b9e4;stroke-opacity:0.6;stroke-width:50;"/>
    <path clip-path="url(#pa613142756)" d="M 496.655372 446.626531 
L 496.655372 441.860616 
" style="fill:none;stroke:#65b9e4;stroke-opacity:0.6;stroke-width:50;"/>
    <path clip-path="url(#pa613142756)" d="M 632.503926 220.76361 
L 632.503926 212.27754 
" style="fill:none;stroke:#65b9e4;stroke-opacity:0.6;stroke-width:50;"/>
   </g>
   <g id="LineCollection_3">
    <path clip-path="url(#pa613142756)" d="M 89.109711 596.146685 
L 89.109711 589.79485 
" style="fill:none;stroke:#327a8a;stroke-opacity:0.6;stroke-width:50;"/>
    <path clip-path="url(#pa613142756)" d="M 224.958264 535.148659 
L 224.958264 531.832216 
" style="fill:none;stroke:#327a8a;stroke-opacity:0.6;stroke-width:50;"/>
    <path clip-path="url(#pa613142756)" d="M 360.806818 154.826614 
L 360.806818 147.293501 
" style="fill:none;stroke:#327a8a;stroke-opacity:0.6;stroke-width:50;"/>
    <path clip-path="url(#pa613142756)" d="M 496.655372 122.623142 
L 496.655372 119.779911 
" style="fill:none;stroke:#327a8a;stroke-opacity:0.6;stroke-width:50;"/>
    <path clip-path="url(#pa613142756)" d="M 632.503926 646.690909 
L 632.503926 642.721663 
" style="fill:none;stroke:#327a8a;stroke-opacity:0.6;stroke-width:50;"/>
   </g>
   <g id="LineCollection_4">
    <path clip-path="url(#pa613142756)" d="M 89.109711 450.712713 
L 89.109711 444.788361 
" style="fill:none;stroke:#333366;stroke-opacity:0.6;stroke-width:50;"/>
    <path clip-path="url(#pa613142756)" d="M 224.958264 462.3599 
L 224.958264 458.819452 
" style="fill:none;stroke:#333366;stroke-opacity:0.6;stroke-width:50;"/>
    <path clip-path="url(#pa613142756)" d="M 360.806818 244.096191 
L 360.806818 238.314433 
" style="fill:none;stroke:#333366;stroke-opacity:0.6;stroke-width:50;"/>
    <path clip-path="url(#pa613142756)" d="M 496.655372 120.731617 
L 496.655372 117.87316 
" style="fill:none;stroke:#333366;stroke-opacity:0.6;stroke-width:50;"/>
    <path clip-path="url(#pa613142756)" d="M 632.503926 386.227361 
L 632.503926 381.684861 
" style="fill:none;stroke:#333366;stroke-opacity:0.6;stroke-width:50;"/>
   </g>
   <g id="line2d_14">
    <path clip-path="url(#pa613142756)" d="M 89.109711 328.327988 
L 224.958264 395.191451 
L 360.806818 420.79071 
L 496.655372 449.630302 
L 632.503926 345.52561 
" style="fill:none;"/>
    <defs>
     <path d="M 0 1.5 
C 0.397805 1.5 0.77937 1.341951 1.06066 1.06066 
C 1.341951 0.77937 1.5 0.397805 1.5 0 
C 1.5 -0.397805 1.341951 -0.77937 1.06066 -1.06066 
C 0.77937 -1.341951 0.397805 -1.5 0 -1.5 
C -0.397805 -1.5 -0.77937 -1.341951 -1.06066 -1.06066 
C -1.341951 -0.77937 -1.5 -0.397805 -1.5 0 
C -1.5 0.397805 -1.341951 0.77937 -1.06066 1.06066 
C -0.77937 1.341951 -0.397805 1.5 0 1.5 
z
" id="m59926b07e2" style="stroke:#e58530;stroke-opacity:0.6;"/>
    </defs>
    <g clip-path="url(#pa613142756)">
     <use style="fill:#e58530;fill-opacity:0.6;stroke:#e58530;stroke-opacity:0.6;" x="89.109711" xlink:href="#m59926b07e2" y="328.327988"/>
     <use style="fill:#e58530;fill-opacity:0.6;stroke:#e58530;stroke-opacity:0.6;" x="224.958264" xlink:href="#m59926b07e2" y="395.191451"/>
     <use style="fill:#e58530;fill-opacity:0.6;stroke:#e58530;stroke-opacity:0.6;" x="360.806818" xlink:href="#m59926b07e2" y="420.79071"/>
     <use style="fill:#e58530;fill-opacity:0.6;stroke:#e58530;stroke-opacity:0.6;" x="496.655372" xlink:href="#m59926b07e2" y="449.630302"/>
     <use style="fill:#e58530;fill-opacity:0.6;stroke:#e58530;stroke-opacity:0.6;" x="632.503926" xlink:href="#m59926b07e2" y="345.52561"/>
    </g>
   </g>
   <g id="line2d_15">
    <path clip-path="url(#pa613142756)" d="M 89.109711 262.976831 
L 224.958264 54.013652 
L 360.806818 438.873867 
L 496.655372 444.243573 
L 632.503926 216.520575 
" style="fill:none;"/>
    <defs>
     <path d="M 0 1.5 
C 0.397805 1.5 0.77937 1.341951 1.06066 1.06066 
C 1.341951 0.77937 1.5 0.397805 1.5 0 
C 1.5 -0.397805 1.341951 -0.77937 1.06066 -1.06066 
C 0.77937 -1.341951 0.397805 -1.5 0 -1.5 
C -0.397805 -1.5 -0.77937 -1.341951 -1.06066 -1.06066 
C -1.341951 -0.77937 -1.5 -0.397805 -1.5 0 
C -1.5 0.397805 -1.341951 0.77937 -1.06066 1.06066 
C -0.77937 1.341951 -0.397805 1.5 0 1.5 
z
" id="m241c4c6044" style="stroke:#65b9e4;stroke-opacity:0.6;"/>
    </defs>
    <g clip-path="url(#pa613142756)">
     <use style="fill:#65b9e4;fill-opacity:0.6;stroke:#65b9e4;stroke-opacity:0.6;" x="89.109711" xlink:href="#m241c4c6044" y="262.976831"/>
     <use style="fill:#65b9e4;fill-opacity:0.6;stroke:#65b9e4;stroke-opacity:0.6;" x="224.958264" xlink:href="#m241c4c6044" y="54.013652"/>
     <use style="fill:#65b9e4;fill-opacity:0.6;stroke:#65b9e4;stroke-opacity:0.6;" x="360.806818" xlink:href="#m241c4c6044" y="438.873867"/>
     <use style="fill:#65b9e4;fill-opacity:0.6;stroke:#65b9e4;stroke-opacity:0.6;" x="496.655372" xlink:href="#m241c4c6044" y="444.243573"/>
     <use style="fill:#65b9e4;fill-opacity:0.6;stroke:#65b9e4;stroke-opacity:0.6;" x="632.503926" xlink:href="#m241c4c6044" y="216.520575"/>
    </g>
   </g>
   <g id="line2d_16">
    <path clip-path="url(#pa613142756)" d="M 89.109711 592.970768 
L 224.958264 533.490437 
L 360.806818 151.060058 
L 496.655372 121.201526 
L 632.503926 644.706286 
" style="fill:none;"/>
    <defs>
     <path d="M 0 1.5 
C 0.397805 1.5 0.77937 1.341951 1.06066 1.06066 
C 1.341951 0.77937 1.5 0.397805 1.5 0 
C 1.5 -0.397805 1.341951 -0.77937 1.06066 -1.06066 
C 0.77937 -1.341951 0.397805 -1.5 0 -1.5 
C -0.397805 -1.5 -0.77937 -1.341951 -1.06066 -1.06066 
C -1.341951 -0.77937 -1.5 -0.397805 -1.5 0 
C -1.5 0.397805 -1.341951 0.77937 -1.06066 1.06066 
C -0.77937 1.341951 -0.397805 1.5 0 1.5 
z
" id="mf96e01ca83" style="stroke:#327a8a;stroke-opacity:0.6;"/>
    </defs>
    <g clip-path="url(#pa613142756)">
     <use style="fill:#327a8a;fill-opacity:0.6;stroke:#327a8a;stroke-opacity:0.6;" x="89.109711" xlink:href="#mf96e01ca83" y="592.970768"/>
     <use style="fill:#327a8a;fill-opacity:0.6;stroke:#327a8a;stroke-opacity:0.6;" x="224.958264" xlink:href="#mf96e01ca83" y="533.490437"/>
     <use style="fill:#327a8a;fill-opacity:0.6;stroke:#327a8a;stroke-opacity:0.6;" x="360.806818" xlink:href="#mf96e01ca83" y="151.060058"/>
     <use style="fill:#327a8a;fill-opacity:0.6;stroke:#327a8a;stroke-opacity:0.6;" x="496.655372" xlink:href="#mf96e01ca83" y="121.201526"/>
     <use style="fill:#327a8a;fill-opacity:0.6;stroke:#327a8a;stroke-opacity:0.6;" x="632.503926" xlink:href="#mf96e01ca83" y="644.706286"/>
    </g>
   </g>
   <g id="line2d_17">
    <path clip-path="url(#pa613142756)" d="M 89.109711 447.750537 
L 224.958264 460.589676 
L 360.806818 241.205312 
L 496.655372 119.302389 
L 632.503926 383.956111 
" style="fill:none;"/>
    <defs>
     <path d="M 0 1.5 
C 0.397805 1.5 0.77937 1.341951 1.06066 1.06066 
C 1.341951 0.77937 1.5 0.397805 1.5 0 
C 1.5 -0.397805 1.341951 -0.77937 1.06066 -1.06066 
C 0.77937 -1.341951 0.397805 -1.5 0 -1.5 
C -0.397805 -1.5 -0.77937 -1.341951 -1.06066 -1.06066 
C -1.341951 -0.77937 -1.5 -0.397805 -1.5 0 
C -1.5 0.397805 -1.341951 0.77937 -1.06066 1.06066 
C -0.77937 1.341951 -0.397805 1.5 0 1.5 
z
" id="m84e6f94408" style="stroke:#333366;stroke-opacity:0.6;"/>
    </defs>
    <g clip-path="url(#pa613142756)">
     <use style="fill:#333366;fill-opacity:0.6;stroke:#333366;stroke-opacity:0.6;" x="89.109711" xlink:href="#m84e6f94408" y="447.750537"/>
     <use style="fill:#333366;fill-opacity:0.6;stroke:#333366;stroke-opacity:0.6;" x="224.958264" xlink:href="#m84e6f94408" y="460.589676"/>
     <use style="fill:#333366;fill-opacity:0.6;stroke:#333366;stroke-opacity:0.6;" x="360.806818" xlink:href="#m84e6f94408" y="241.205312"/>
     <use style="fill:#333366;fill-opacity:0.6;stroke:#333366;stroke-opacity:0.6;" x="496.655372" xlink:href="#m84e6f94408" y="119.302389"/>
     <use style="fill:#333366;fill-opacity:0.6;stroke:#333366;stroke-opacity:0.6;" x="632.503926" xlink:href="#m84e6f94408" y="383.956111"/>
    </g>
   </g>
   <g id="patch_3">
    <path d="M 61.94 676.56 
L 61.94 19.44 
" style="fill:none;stroke:#f0f4f6;stroke-linecap:square;stroke-linejoin:miter;stroke-width:0.8;"/>
   </g>
   <g id="patch_4">
    <path d="M 61.94 676.56 
L 659.673636 676.56 
" style="fill:none;stroke:#f0f4f6;stroke-linecap:square;stroke-linejoin:miter;stroke-width:0.8;"/>
   </g>
   <g id="legend_1">
    <g id="patch_5">
     <path d="M 579.463949 136.49625 
L 647.073636 136.49625 
Q 650.673636 136.49625 650.673636 132.89625 
L 650.673636 32.04 
Q 650.673636 28.44 647.073636 28.44 
L 579.463949 28.44 
Q 575.863949 28.44 575.863949 32.04 
L 575.863949 132.89625 
Q 575.863949 136.49625 579.463949 136.49625 
z
" style="fill:#f0f4f6;opacity:0.8;stroke:#cccccc;stroke-linejoin:miter;"/>
    </g>
    <g id="LineCollection_5">
     <path d="M 601.063949 51.252188 
L 601.063949 33.252188 
" style="fill:none;stroke:#e58530;stroke-opacity:0.6;stroke-width:50;"/>
    </g>
    <g id="line2d_18">
     <path d="M 583.063949 42.252188 
L 619.063949 42.252188 
" style="fill:none;"/>
    </g>
    <g id="line2d_19">
     <g>
      <use style="fill:#e58530;fill-opacity:0.6;stroke:#e58530;stroke-opacity:0.6;" x="601.063949" xlink:href="#m59926b07e2" y="42.252188"/>
     </g>
    </g>
    <g id="text_14">
     <!-- 0 -->
     <g style="fill:#1e1e1e;" transform="translate(633.463949 48.552188)scale(0.18 -0.18)">
      <use xlink:href="#Helvetica-48"/>
     </g>
    </g>
    <g id="LineCollection_6">
     <path d="M 601.063949 76.91625 
L 601.063949 58.91625 
" style="fill:none;stroke:#65b9e4;stroke-opacity:0.6;stroke-width:50;"/>
    </g>
    <g id="line2d_20">
     <path d="M 583.063949 67.91625 
L 619.063949 67.91625 
" style="fill:none;"/>
    </g>
    <g id="line2d_21">
     <g>
      <use style="fill:#65b9e4;fill-opacity:0.6;stroke:#65b9e4;stroke-opacity:0.6;" x="601.063949" xlink:href="#m241c4c6044" y="67.91625"/>
     </g>
    </g>
    <g id="text_15">
     <!-- 1 -->
     <g style="fill:#1e1e1e;" transform="translate(633.463949 74.21625)scale(0.18 -0.18)">
      <use xlink:href="#Helvetica-49"/>
     </g>
    </g>
    <g id="LineCollection_7">
     <path d="M 601.063949 102.580313 
L 601.063949 84.580313 
" style="fill:none;stroke:#327a8a;stroke-opacity:0.6;stroke-width:50;"/>
    </g>
    <g id="line2d_22">
     <path d="M 583.063949 93.580313 
L 619.063949 93.580313 
" style="fill:none;"/>
    </g>
    <g id="line2d_23">
     <g>
      <use style="fill:#327a8a;fill-opacity:0.6;stroke:#327a8a;stroke-opacity:0.6;" x="601.063949" xlink:href="#mf96e01ca83" y="93.580313"/>
     </g>
    </g>
    <g id="text_16">
     <!-- 2 -->
     <g style="fill:#1e1e1e;" transform="translate(633.463949 99.880313)scale(0.18 -0.18)">
      <use xlink:href="#Helvetica-50"/>
     </g>
    </g>
    <g id="LineCollection_8">
     <path d="M 601.063949 128.244375 
L 601.063949 110.244375 
" style="fill:none;stroke:#333366;stroke-opacity:0.6;stroke-width:50;"/>
    </g>
    <g id="line2d_24">
     <path d="M 583.063949 119.244375 
L 619.063949 119.244375 
" style="fill:none;"/>
    </g>
    <g id="line2d_25">
     <g>
      <use style="fill:#333366;fill-opacity:0.6;stroke:#333366;stroke-opacity:0.6;" x="601.063949" xlink:href="#m84e6f94408" y="119.244375"/>
     </g>
    </g>
    <g id="text_17">
     <!-- 3 -->
     <defs>
      <path d="M 25.984375 -1.90625 
Q 13.578125 -1.90625 7.984375 4.90625 
Q 2.390625 11.71875 2.390625 21.484375 
L 11.578125 21.484375 
Q 12.15625 14.703125 14.109375 11.625 
Q 17.53125 6.109375 26.46875 6.109375 
Q 33.40625 6.109375 37.59375 9.8125 
Q 41.796875 13.53125 41.796875 19.390625 
Q 41.796875 26.609375 37.375 29.484375 
Q 32.953125 32.375 25.09375 32.375 
Q 24.21875 32.375 23.3125 32.34375 
Q 22.40625 32.328125 21.484375 32.28125 
L 21.484375 40.046875 
Q 22.859375 39.890625 23.78125 39.84375 
Q 24.703125 39.796875 25.78125 39.796875 
Q 30.71875 39.796875 33.890625 41.359375 
Q 39.453125 44.09375 39.453125 51.125 
Q 39.453125 56.34375 35.734375 59.171875 
Q 32.03125 62.015625 27.09375 62.015625 
Q 18.3125 62.015625 14.9375 56.15625 
Q 13.09375 52.9375 12.84375 46.96875 
L 4.15625 46.96875 
Q 4.15625 54.78125 7.28125 60.25 
Q 12.640625 70.015625 26.171875 70.015625 
Q 36.859375 70.015625 42.71875 65.25 
Q 48.578125 60.5 48.578125 51.46875 
Q 48.578125 45.015625 45.125 41.015625 
Q 42.96875 38.53125 39.546875 37.109375 
Q 45.0625 35.59375 48.15625 31.265625 
Q 51.265625 26.953125 51.265625 20.703125 
Q 51.265625 10.6875 44.671875 4.390625 
Q 38.09375 -1.90625 25.984375 -1.90625 
z
" id="Helvetica-51"/>
     </defs>
     <g style="fill:#1e1e1e;" transform="translate(633.463949 125.544375)scale(0.18 -0.18)">
      <use xlink:href="#Helvetica-51"/>
     </g>
    </g>
   </g>
  </g>
  <g id="text_18">
   <!-- Clustering Variables standardized, grouped by Clusters -->
   <defs>
    <path d="M 37.84375 73.6875 
Q 51.46875 73.6875 58.984375 66.5 
Q 66.5 59.328125 67.328125 50.203125 
L 57.859375 50.203125 
Q 56.25 57.125 51.4375 61.171875 
Q 46.625 65.234375 37.9375 65.234375 
Q 27.34375 65.234375 20.828125 57.78125 
Q 14.3125 50.34375 14.3125 34.96875 
Q 14.3125 22.359375 20.1875 14.515625 
Q 26.078125 6.6875 37.75 6.6875 
Q 48.484375 6.6875 54.109375 14.9375 
Q 57.078125 19.28125 58.546875 26.375 
L 68.015625 26.375 
Q 66.75 15.046875 59.625 7.375 
Q 51.078125 -1.859375 36.578125 -1.859375 
Q 24.078125 -1.859375 15.578125 5.71875 
Q 4.390625 15.71875 4.390625 36.625 
Q 4.390625 52.484375 12.796875 62.640625 
Q 21.875 73.6875 37.84375 73.6875 
z
M 35.890625 73.6875 
z
" id="Helvetica-67"/>
    <path d="M 6.6875 71.734375 
L 15.484375 71.734375 
L 15.484375 0 
L 6.6875 0 
z
" id="Helvetica-108"/>
    <path d="M 15.234375 52.296875 
L 15.234375 17.578125 
Q 15.234375 13.578125 16.5 11.03125 
Q 18.84375 6.34375 25.25 6.34375 
Q 34.421875 6.34375 37.75 14.546875 
Q 39.546875 18.953125 39.546875 26.609375 
L 39.546875 52.296875 
L 48.34375 52.296875 
L 48.34375 0 
L 40.046875 0 
L 40.140625 7.71875 
Q 38.421875 4.734375 35.890625 2.6875 
Q 30.859375 -1.421875 23.6875 -1.421875 
Q 12.5 -1.421875 8.453125 6.0625 
Q 6.25 10.0625 6.25 16.75 
L 6.25 52.296875 
z
M 27.296875 53.5625 
z
" id="Helvetica-117"/>
    <path id="Helvetica-32"/>
    <path d="M 13.28125 71.734375 
L 33.890625 10.640625 
L 54.25 71.734375 
L 65.140625 71.734375 
L 38.96875 0 
L 28.65625 0 
L 2.546875 71.734375 
z
" id="Helvetica-86"/>
    <path d="M 5.765625 71.96875 
L 14.3125 71.96875 
L 14.3125 45.953125 
Q 17.1875 49.703125 21.1875 51.671875 
Q 25.203125 53.65625 29.890625 53.65625 
Q 39.65625 53.65625 45.734375 46.9375 
Q 51.8125 40.234375 51.8125 27.15625 
Q 51.8125 14.75 45.796875 6.546875 
Q 39.796875 -1.65625 29.15625 -1.65625 
Q 23.1875 -1.65625 19.09375 1.21875 
Q 16.65625 2.9375 13.875 6.6875 
L 13.875 0 
L 5.765625 0 
z
M 28.609375 6.109375 
Q 35.75 6.109375 39.28125 11.765625 
Q 42.828125 17.4375 42.828125 26.703125 
Q 42.828125 34.96875 39.28125 40.375 
Q 35.75 45.796875 28.859375 45.796875 
Q 22.859375 45.796875 18.328125 41.359375 
Q 13.8125 36.921875 13.8125 26.703125 
Q 13.8125 19.34375 15.671875 14.75 
Q 19.140625 6.109375 28.609375 6.109375 
z
" id="Helvetica-98"/>
    <path d="M 2.546875 6.9375 
L 33.546875 44.4375 
L 4.828125 44.4375 
L 4.828125 52.296875 
L 45.359375 52.296875 
L 45.359375 45.125 
L 14.546875 7.859375 
L 46.296875 7.859375 
L 46.296875 0 
L 2.546875 0 
z
M 25.140625 53.5625 
z
" id="Helvetica-122"/>
    <path d="M 8.296875 -10.203125 
Q 11.671875 -9.625 13.03125 -5.46875 
Q 13.765625 -3.265625 13.765625 -1.21875 
Q 13.765625 -0.875 13.734375 -0.609375 
Q 13.71875 -0.34375 13.625 0 
L 8.296875 0 
L 8.296875 10.640625 
L 18.75 10.640625 
L 18.75 0.78125 
Q 18.75 -5.03125 16.40625 -9.421875 
Q 14.0625 -13.8125 8.296875 -14.84375 
z
" id="Helvetica-44"/>
    <path d="M 39.109375 52.296875 
L 48.828125 52.296875 
Q 46.96875 47.265625 40.578125 29.34375 
Q 35.796875 15.875 32.5625 7.375 
Q 24.953125 -12.640625 21.828125 -17.03125 
Q 18.703125 -21.4375 11.078125 -21.4375 
Q 9.234375 -21.4375 8.234375 -21.28125 
Q 7.234375 -21.140625 5.765625 -20.75 
L 5.765625 -12.75 
Q 8.0625 -13.375 9.078125 -13.515625 
Q 10.109375 -13.671875 10.890625 -13.671875 
Q 13.328125 -13.671875 14.46875 -12.859375 
Q 15.625 -12.0625 16.40625 -10.890625 
Q 16.65625 -10.5 18.15625 -6.875 
Q 19.671875 -3.265625 20.359375 -1.515625 
L 1.03125 52.296875 
L 10.984375 52.296875 
L 25 9.71875 
z
M 24.953125 53.5625 
z
" id="Helvetica-121"/>
   </defs>
   <g style="fill:#1e1e1e;" transform="translate(115.440625 -6.8625)scale(0.2 -0.2)">
    <use xlink:href="#Helvetica-67"/>
    <use x="72.216797" xlink:href="#Helvetica-108"/>
    <use x="94.433594" xlink:href="#Helvetica-117"/>
    <use x="150.048828" xlink:href="#Helvetica-115"/>
    <use x="200.048828" xlink:href="#Helvetica-116"/>
    <use x="227.832031" xlink:href="#Helvetica-101"/>
    <use x="283.447266" xlink:href="#Helvetica-114"/>
    <use x="316.748047" xlink:href="#Helvetica-105"/>
    <use x="338.964844" xlink:href="#Helvetica-110"/>
    <use x="394.580078" xlink:href="#Helvetica-103"/>
    <use x="450.195312" xlink:href="#Helvetica-32"/>
    <use x="477.978516" xlink:href="#Helvetica-86"/>
    <use x="544.677734" xlink:href="#Helvetica-97"/>
    <use x="600.292969" xlink:href="#Helvetica-114"/>
    <use x="633.59375" xlink:href="#Helvetica-105"/>
    <use x="655.810547" xlink:href="#Helvetica-97"/>
    <use x="711.425781" xlink:href="#Helvetica-98"/>
    <use x="767.041016" xlink:href="#Helvetica-108"/>
    <use x="789.257812" xlink:href="#Helvetica-101"/>
    <use x="844.873047" xlink:href="#Helvetica-115"/>
    <use x="894.873047" xlink:href="#Helvetica-32"/>
    <use x="922.65625" xlink:href="#Helvetica-115"/>
    <use x="972.65625" xlink:href="#Helvetica-116"/>
    <use x="1000.439453" xlink:href="#Helvetica-97"/>
    <use x="1056.054688" xlink:href="#Helvetica-110"/>
    <use x="1111.669922" xlink:href="#Helvetica-100"/>
    <use x="1167.285156" xlink:href="#Helvetica-97"/>
    <use x="1222.900391" xlink:href="#Helvetica-114"/>
    <use x="1256.201172" xlink:href="#Helvetica-100"/>
    <use x="1311.816406" xlink:href="#Helvetica-105"/>
    <use x="1334.033203" xlink:href="#Helvetica-122"/>
    <use x="1384.033203" xlink:href="#Helvetica-101"/>
    <use x="1439.648438" xlink:href="#Helvetica-100"/>
    <use x="1495.263672" xlink:href="#Helvetica-44"/>
    <use x="1523.046875" xlink:href="#Helvetica-32"/>
    <use x="1550.830078" xlink:href="#Helvetica-103"/>
    <use x="1606.445312" xlink:href="#Helvetica-114"/>
    <use x="1639.746094" xlink:href="#Helvetica-111"/>
    <use x="1695.361328" xlink:href="#Helvetica-117"/>
    <use x="1750.976562" xlink:href="#Helvetica-112"/>
    <use x="1806.591797" xlink:href="#Helvetica-101"/>
    <use x="1862.207031" xlink:href="#Helvetica-100"/>
    <use x="1917.822266" xlink:href="#Helvetica-32"/>
    <use x="1945.605469" xlink:href="#Helvetica-98"/>
    <use x="2001.220703" xlink:href="#Helvetica-121"/>
    <use x="2051.220703" xlink:href="#Helvetica-32"/>
    <use x="2079.003906" xlink:href="#Helvetica-67"/>
    <use x="2151.220703" xlink:href="#Helvetica-108"/>
    <use x="2173.4375" xlink:href="#Helvetica-117"/>
    <use x="2229.052734" xlink:href="#Helvetica-115"/>
    <use x="2279.052734" xlink:href="#Helvetica-116"/>
    <use x="2306.835938" xlink:href="#Helvetica-101"/>
    <use x="2362.451172" xlink:href="#Helvetica-114"/>
    <use x="2395.751953" xlink:href="#Helvetica-115"/>
   </g>
  </g>
 </g>
 <defs>
  <clipPath id="pa613142756">
   <rect height="657.12" width="597.733636" x="61.94" y="19.44"/>
  </clipPath>
 </defs>
</svg>
